# xmcd CD database file
#
# Track frame offsets:
#	150
#	23131
#	46380
#	73902
#	98928
#	121515
#	143571
#	167071
#	191229
#	218138
#
# Disc length: 3073 seconds
#
# Revision: 2
# Processed by: cddbd v1.5.1PL0 Copyright (c) Steve Scherf et al.
# Submitted via: CDex 1.51
#
DISCID=8c0bff0a
DTITLE=難波弘之 - 幻想水滸伝音楽集Produced by 難波弘之 Played by 野獣王国
DYEAR=2001
DGENRE=Game
TTITLE0=枯れた大地
TTITLE1=ロックロックランド
TTITLE2=集いし戦士たち
TTITLE3=勝利への意欲
TTITLE4=La mia tristezza
TTITLE5=幻想の世界へ
TTITLE6=明るい農村
TTITLE7=山越え
TTITLE8=Gothic Neclord
TTITLE9=回想
EXTD=YEAR: 2001
EXTT0=
EXTT1=
EXTT2=
EXTT3=
EXTT4=
EXTT5=
EXTT6=
EXTT7=
EXTT8=
EXTT9=
PLAYORDER=
